<svg width="228px" height="228px" viewBox="-6.6 -6.6 33.20 33.20" version="1.1"
    xmlns="http://www.w3.org/2000/svg" fill="#000000" transform="rotate(45)matrix(1, 0, 0, 1, 0, 0)">
    <g id="SVGRepo_iconCarrier">
        <path
            d="M 0.47460938 0 A 0.4999986 0.50000733 0 0 0 0.05859375 0.73242188 L 10.058594 19.730469 A 0.4999986 0.50000733 0 0 0 11.001953 19.498047 L 11.001953 11 L 19.5 11 A 0.4999986 0.50000733 0 0 0 19.732422 10.056641 L 0.734375 0.056640625 A 0.4999986 0.50000733 0 0 0 0.52539062 0 A 0.4999986 0.50000733 0 0 0 0.47460938 0 z M 1.6953125 1.6933594 L 17.476562 10 L 10.501953 10 A 0.4999986 0.50000733 0 0 0 10.001953 10.5 L 10.001953 17.474609 L 1.6953125 1.6933594 z"
            style="fill:#000000; fill-opacity:1; stroke:none;" fill-rule="evenodd"></path>
    </g>
</svg>
